<svg xmlns="http://www.w3.org/2000/svg" width="55.77" height="16.82" viewBox="0 0 55.77 16.82">
  <defs>
    <style>
      .\36 40a7236-9383-49f0-ad1e-83f534743185 {
        fill: #818991;
      }

      .\33 fc5b373-78c3-460d-b532-54b2e6456dce, .\39 0be4304-aa3e-447d-9fe1-e13ad38b264d {
        fill: #809ead;
      }

      .\31 114986b-b7e0-472c-8db7-8fb0c59f8916 {
        fill: #231f20;
      }

      .\39 0be4304-aa3e-447d-9fe1-e13ad38b264d {
        font-size: 3.94px;
        font-family: AvenirNext-Bold, Avenir Next;
        font-weight: 700;
        letter-spacing: -0.07em;
      }
    </style>
  </defs>
  <title>Asset 2</title>
  <g id="e5d211b9-0b6d-432e-8215-bc69fe3b1374" data-name="Layer 2">
    <g id="97ce4dd0-db9d-43a7-b34b-42362a7dbcd4" data-name="Layer 1">
      <path class="640a7236-9383-49f0-ad1e-83f534743185" d="M11.48,4.18a2.17,2.17,0,0,0-1.11-.63l-.5-.11c0-.17-.07-.34-.1-.51a3.37,3.37,0,0,0-3-2.88A6.89,6.89,0,0,0,4.9.08a3.52,3.52,0,0,0-3.12,3,4.53,4.53,0,0,0-.08.73c0,.19-.1.25-.25.32a6.43,6.43,0,0,0-1,.54A1.05,1.05,0,0,0,.16,6.14a1.69,1.69,0,0,0,.74.63,3.55,3.55,0,0,0,1.48.29,16.33,16.33,0,0,0,3.34-.42c1.88-.45,3-1,5.05-1.55a2.12,2.12,0,0,0,.66-.32C11.69,4.6,11.7,4.41,11.48,4.18ZM9.9,4.71a.47.47,0,0,1-.19.23A9.61,9.61,0,0,1,6.25,6.23a10.7,10.7,0,0,1-3.57,0c-.76-.14-.94-.34-.94-1.16a10.23,10.23,0,0,0,8.18-1A4.19,4.19,0,0,1,9.9,4.71Z"/>
      <path class="3fc5b373-78c3-460d-b532-54b2e6456dce" d="M10.53,1.9a1.08,1.08,0,0,0-.57.82.44.44,0,0,0-.21,0,.79.79,0,0,1,.17.1.5.5,0,0,1-.3,0,.56.56,0,0,0,.28.09c-.24,0-.29.16-.29.16a.27.27,0,0,1,.3-.08h0A1.08,1.08,0,0,0,10,4a1.26,1.26,0,0,1,.75-1.72,1.47,1.47,0,0,0-.69.76.28.28,0,0,1,.13.18A.29.29,0,0,0,10.1,3h0a.38.38,0,0,0,.22.07s-.16,0-.17-.1a.29.29,0,0,0,.1,0s-.08,0-.09,0a.72.72,0,0,1,.52-.27c.68,0,1,.17,1.14-.28S11.25,1.53,10.53,1.9Z"/>
      <path class="1114986b-b7e0-472c-8db7-8fb0c59f8916" d="M7.49,16.63V13.07H4.18v3.56h-2V8.13H4.18v3.22a7.13,7.13,0,0,1,1.64-.19,9,9,0,0,1,1.67.19V8.13h2v8.5Z"/>
      <g>
        <path class="1114986b-b7e0-472c-8db7-8fb0c59f8916" d="M16.2,13.71V14c0,.08,0,.15,0,.23H11.85a1.09,1.09,0,0,0,.15.45,1.43,1.43,0,0,0,.77.59,1.52,1.52,0,0,0,.51.09,1.59,1.59,0,0,0,.79-.18,1.37,1.37,0,0,0,.53-.45l1.37.86a2.77,2.77,0,0,1-1.11.95,3.66,3.66,0,0,1-1.6.33A3.8,3.8,0,0,1,12,16.61,3.22,3.22,0,0,1,10.94,16a2.8,2.8,0,0,1-.71-1A3.3,3.3,0,0,1,10,13.66a3.35,3.35,0,0,1,.25-1.33,3,3,0,0,1,.69-1,2.81,2.81,0,0,1,1-.64,3.3,3.3,0,0,1,1.27-.23,3.18,3.18,0,0,1,1.21.22,2.7,2.7,0,0,1,.95.64,3.06,3.06,0,0,1,.62,1A4.14,4.14,0,0,1,16.2,13.71ZM14.39,13a1.15,1.15,0,0,0-.3-.8,1.11,1.11,0,0,0-.88-.34,1.51,1.51,0,0,0-.53.09,1.27,1.27,0,0,0-.42.25,1.32,1.32,0,0,0-.29.37,1.11,1.11,0,0,0-.12.43Z"/>
        <path class="1114986b-b7e0-472c-8db7-8fb0c59f8916" d="M20.4,12.27l-.26,0h-.25a1.46,1.46,0,0,0-.66.14,1.27,1.27,0,0,0-.43.35,1.36,1.36,0,0,0-.24.44,1.41,1.41,0,0,0-.07.42v3.07h-2v-6h1.9v.86h0a1.89,1.89,0,0,1,.65-.75,1.68,1.68,0,0,1,1-.29h.24l.18,0Z"/>
        <path class="1114986b-b7e0-472c-8db7-8fb0c59f8916" d="M24.68,16.63v-.78h0a2,2,0,0,1-.82.7,2.78,2.78,0,0,1-1.14.24,2.58,2.58,0,0,1-1.2-.26,2.8,2.8,0,0,1-.89-.7,3,3,0,0,1-.56-1,3.68,3.68,0,0,1-.19-1.2,3.42,3.42,0,0,1,.2-1.19,3.15,3.15,0,0,1,.56-1,2.61,2.61,0,0,1,2.06-.94,2.22,2.22,0,0,1,1.11.25,2.32,2.32,0,0,1,.71.56h0V7.55h2v9.08Zm-.07-3a1.59,1.59,0,0,0-.1-.57,1.72,1.72,0,0,0-.29-.49,1.3,1.3,0,0,0-.45-.35,1.32,1.32,0,0,0-.6-.13,1.31,1.31,0,0,0-.61.13,1.41,1.41,0,0,0-.45.34,1.47,1.47,0,0,0-.27.49,1.82,1.82,0,0,0,0,1.13,1.42,1.42,0,0,0,.27.5,1.33,1.33,0,0,0,1.06.48,1.32,1.32,0,0,0,.6-.13,1.3,1.3,0,0,0,.45-.35,1.72,1.72,0,0,0,.29-.49A1.58,1.58,0,0,0,24.61,13.63Z"/>
        <path class="1114986b-b7e0-472c-8db7-8fb0c59f8916" d="M33.08,13.71V14a1.77,1.77,0,0,1,0,.23H28.74a.86.86,0,0,0,.15.45,1.22,1.22,0,0,0,.32.36,1.37,1.37,0,0,0,.45.23,1.44,1.44,0,0,0,.51.09,1.62,1.62,0,0,0,.79-.18,1.54,1.54,0,0,0,.53-.45l1.36.86a2.77,2.77,0,0,1-1.11.95,3.66,3.66,0,0,1-1.6.33,3.8,3.8,0,0,1-1.27-.21A3.22,3.22,0,0,1,27.82,16a2.8,2.8,0,0,1-.71-1,3.3,3.3,0,0,1-.26-1.34,3.36,3.36,0,0,1,.26-1.33,2.82,2.82,0,0,1,.68-1,3,3,0,0,1,1-.64,3.33,3.33,0,0,1,1.27-.23,3.14,3.14,0,0,1,1.21.22,2.62,2.62,0,0,1,1,.64,2.91,2.91,0,0,1,.62,1A3.9,3.9,0,0,1,33.08,13.71ZM31.27,13a1.19,1.19,0,0,0-.29-.8,1.14,1.14,0,0,0-.89-.34,1.46,1.46,0,0,0-.52.09,1.27,1.27,0,0,0-.42.25,1.16,1.16,0,0,0-.29.37,1.11,1.11,0,0,0-.12.43Z"/>
        <path class="1114986b-b7e0-472c-8db7-8fb0c59f8916" d="M37.28,12.27l-.26,0h-.24a1.48,1.48,0,0,0-.67.14,1.37,1.37,0,0,0-.43.35,1.17,1.17,0,0,0-.23.44,1.46,1.46,0,0,0-.08.42v3.07h-2v-6H35.3v.86h0a1.87,1.87,0,0,1,.64-.75,1.71,1.71,0,0,1,1-.29h.23l.19,0Z"/>
        <path class="1114986b-b7e0-472c-8db7-8fb0c59f8916" d="M40.77,12.41a2,2,0,0,0-.56-.38,1.62,1.62,0,0,0-.68-.16A1.19,1.19,0,0,0,39,12a.38.38,0,0,0-.24.37.37.37,0,0,0,.26.36,4.15,4.15,0,0,0,.83.24,4.42,4.42,0,0,1,.68.21,2.47,2.47,0,0,1,.62.34,1.86,1.86,0,0,1,.44.53,1.49,1.49,0,0,1,.17.75,1.78,1.78,0,0,1-.23,1,1.88,1.88,0,0,1-.59.63,2.51,2.51,0,0,1-.82.35,4.11,4.11,0,0,1-.91.11,4.44,4.44,0,0,1-1.44-.24,2.85,2.85,0,0,1-1.17-.69l1.11-1.16a2.24,2.24,0,0,0,.64.48,1.8,1.8,0,0,0,.82.19,1.12,1.12,0,0,0,.47-.11.42.42,0,0,0,.24-.41.42.42,0,0,0-.29-.4,5.17,5.17,0,0,0-.9-.28,4.44,4.44,0,0,1-.62-.19,2,2,0,0,1-.56-.32,1.54,1.54,0,0,1-.4-.51,1.47,1.47,0,0,1-.16-.72,1.77,1.77,0,0,1,.23-.92,1.94,1.94,0,0,1,.59-.62,3,3,0,0,1,.79-.35,3.84,3.84,0,0,1,.87-.11,4.24,4.24,0,0,1,1.32.21,2.76,2.76,0,0,1,1.08.63Z"/>
        <path class="1114986b-b7e0-472c-8db7-8fb0c59f8916" d="M48.36,13.61a3.19,3.19,0,0,1-.27,1.33,2.92,2.92,0,0,1-.72,1,3.29,3.29,0,0,1-1,.64,3.68,3.68,0,0,1-2.56,0A3.23,3.23,0,0,1,42.7,16a3,3,0,0,1-.71-1,3.39,3.39,0,0,1,0-2.65,2.85,2.85,0,0,1,.71-1,3,3,0,0,1,1.06-.63,4,4,0,0,1,2.56,0,3.1,3.1,0,0,1,1,.63,2.75,2.75,0,0,1,.72,1A3.18,3.18,0,0,1,48.36,13.61Zm-1.9,0a1.77,1.77,0,0,0-.09-.56,1.69,1.69,0,0,0-.28-.49,1.48,1.48,0,0,0-.44-.34,1.35,1.35,0,0,0-.62-.13,1.33,1.33,0,0,0-.61.13,1.48,1.48,0,0,0-.44.34,1.64,1.64,0,0,0-.26.49,1.77,1.77,0,0,0-.09.56,1.84,1.84,0,0,0,.09.57,1.47,1.47,0,0,0,.27.49,1.39,1.39,0,0,0,.44.36,1.35,1.35,0,0,0,.62.13,1.33,1.33,0,0,0,.61-.13,1.39,1.39,0,0,0,.44-.36,1.47,1.47,0,0,0,.27-.49A1.84,1.84,0,0,0,46.46,13.61Z"/>
        <path class="1114986b-b7e0-472c-8db7-8fb0c59f8916" d="M52.41,9l-.25-.06-.29,0a.82.82,0,0,0-.44.1.69.69,0,0,0-.26.25,1.09,1.09,0,0,0-.14.37,2.83,2.83,0,0,0,0,.41v.6h1.33v1.46H51v4.52H49V12.11H47.94V10.65H49v-.58A4.51,4.51,0,0,1,49.15,9a2.33,2.33,0,0,1,.41-.87,2.06,2.06,0,0,1,.8-.6,3,3,0,0,1,1.24-.22,4.18,4.18,0,0,1,.5,0l.45.09Z"/>
        <path class="1114986b-b7e0-472c-8db7-8fb0c59f8916" d="M54,12.11V14.4a1.08,1.08,0,0,0,.16.63.72.72,0,0,0,.59.22l.3,0a.88.88,0,0,0,.27-.07l0,1.44a2.68,2.68,0,0,1-.52.12,3.34,3.34,0,0,1-.62.06,3,3,0,0,1-1-.15,1.72,1.72,0,0,1-.66-.43,1.76,1.76,0,0,1-.35-.68,3.34,3.34,0,0,1-.11-.87V12.11h-1V10.65h1V9.08H54v1.57h1.41v1.46Z"/>
      </g>
      <text class="90be4304-aa3e-447d-9fe1-e13ad38b264d" transform="translate(53.69 10.12)">®</text>
    </g>
  </g>
</svg>
